<?xml version="1.0" encoding="utf-8"?>
<!-- Generator: Adobe Illustrator 23.0.0, SVG Export Plug-In . SVG Version: 6.00 Build 0)  -->
<svg version="1.1" id="Camada_1" xmlns="http://www.w3.org/2000/svg" xmlns:xlink="http://www.w3.org/1999/xlink" x="0px" y="0px"
	 viewBox="0 0 512 512" style="enable-background:new 0 0 512 512;" xml:space="preserve">
<style type="text/css">
	.st0{fill:none;stroke:#000000;stroke-width:8;stroke-linecap:round;stroke-linejoin:round;stroke-miterlimit:10;}
	.st1{fill:#FFFFFF;stroke:#000000;stroke-width:8;stroke-linecap:round;stroke-linejoin:round;stroke-miterlimit:10;}
	.st2{fill:none;stroke:#000000;stroke-width:8;stroke-miterlimit:10;}
	.st3{fill:#FFFFFF;stroke:#000000;stroke-width:8;stroke-miterlimit:10;}
</style>
<g>
	<path d="M438.8,275.5c0.4,12.3-0.9,25.1-2.7,38c-1,6.9-1.2,13.9-1.9,20.9c-1.4,12.9-2.9,25.7-4.3,38.5c-0.7,6.2-1.3,12.4-1.7,18.6
		c0,0.8,1.3,2.1,2.3,2.4c2.4,0.7,6-1.1,7.3,1.6c1.2,2.4,0.9,5.5,1,8.3c0.1,5.2,0,10.4,0,15.6c0,8.7,0,8.7-8.6,8.8
		c-3.2,0-6.4,0.1-9.5,0c-3-0.1-4.3,0.8-4.2,4c0.3,10.9-2.9,20.9-8.3,30.4c-9.3,16.5-23.8,25.8-42.2,30c-17.5,4-33-1.1-47.2-10.4
		c-8.8-5.8-16.1-13.7-19.6-23.9c-2.4-6.9-6.4-8.6-13.4-8.3c-14.8,0.6-29.6,0.3-44.5,0.1c-3.7-0.1-5.7,1.1-7.1,4.5
		c-3.5,8.2-7.8,15.8-14.7,21.9c-13.1,11.7-28.2,18.3-46,17.2c-14.3-0.8-27.1-6.2-37.8-15.8c-13.7-12.2-20.2-27.5-20.7-45.4
		c-0.1-4-0.2-4.1-4.7-4.2c-4.5-0.1-9,0-13.5,0c-2.5,0-4-1.3-4-3.8c0-8.8,0-17.7,0-26.5c0-2.5,1.5-3.7,4.1-3.8c1.3,0,2.6,0,4-0.1
		c2,0,2.8-1,2.6-3c-1.6-15.7-3.1-31.4-4.7-47.1c-1.5-14.9-2.7-29.9-4.8-44.7c-1.9-13.8-0.7-27.5-1.1-41.2c-0.2-5.4,0.5-5.8,5.7-6
		c1.6-0.1,3.2-0.1,4.8,0c2.5,0.2,3.9-1,5-3c2.3-4.7,4.8-9.2,7-14c1.4-3.1,3.3-4.7,7.1-5.1c7.8-0.7,15.6-2.1,23.4-3.2
		c3.1-0.4,5.2-1.9,6.6-4.8c4-8.2,8.4-16.2,12.3-24.4c1.8-3.9,4.1-5.8,8.5-5.1c4,0.7,6.3-1.1,7.8-4.7c1.6-3.8,3.9-7.4,5.5-11.2
		c1.8-4.4,4.6-6.3,9.6-6c7.4,0.4,14.8-0.1,22.2,0.2c3.3,0.1,4.9-1.3,5.7-4.1c0.8-2.7,1.4-5.5,2.3-8.2c0.9-3,2.9-4.7,6.4-4.7
		c10.9,0.1,21.7,0.1,32.6,0c3.2,0,4.8,1.4,6,4c2.2,4.7,4.9,9.2,7,14c1.4,3.2,3.5,4.1,6.8,4c4.8-0.2,9.5,0.1,14.3-0.1
		c3.3-0.2,4.9,1.4,5.7,4.2c1.3,4.5,2.5,9,3.5,13.5c0.6,2.5,1.2,1.9,2.9,0.9c1.7-1,3.9-1.5,5.9-1.5c10.1-0.1,20.1,0.1,30.2-0.1
		c3.6-0.1,5.8,1.1,7.8,4.1c2.8,4.4,6.4,8.2,9.3,12.5c2.9,4.2,6.8,6.2,11.8,6.8c9.4,1.1,18.8,2.4,28.2,3.4c3.4,0.3,5,1.6,6,4.9
		c2.4,7.9,5.3,15.7,7.9,23.6c1,3.1,2.6,4.9,6.2,4.4c2.6-0.3,5.3-0.1,7.9,0c5.5,0.1,6,0.6,6.1,5.7C438.9,263.3,438.8,269,438.8,275.5
		z M265.4,394c11.6,0,23.3-0.7,34.9,0.2c7.5,0.6,11-3.9,15.2-8.1c1.1-1.2,0-1.7-1.2-1.7c-1.6,0-3.2,0-4.8-0.1
		c-4.9-0.2-5.5-0.7-5.5-5.5c-0.1-18.7-0.1-37.5,0-56.2c0-4.6,0.7-5.1,5.8-5.2c7.7-0.1,15.4-0.1,23,0c5.3,0.1,5.8,0.6,5.9,5.9
		c0.1,12.5,0,25,0,37.5c0,3.4,0,6.8,0.1,10.1c0,2,1.1,2.7,3,2.6c4.7-0.5,9.4-1.1,14.1-1.3c2.8-0.1,3.7-1.1,3.7-3.7
		c-0.1-8.1,0-16.1,0-24.2c0-7.3-0.1-14.6,0-21.9c0.1-3.9,0.8-4.8,4.5-4.9c8.7-0.1,17.5-0.1,26.2,0c2.5,0,3.9,1.3,4,3.8
		c0.1,1.8,0,3.6,0,5.5c0,15.6,0,31.2-0.1,46.8c0,3.3-0.7,6.6-0.9,10c-0.1,0.9,0.1,2.1,0.7,2.7c4.4,4.5,8.3,9.8,16,7.7
		c0.7-0.2,1.6-0.1,2.4,0c3.2,0.3,3.9-1.4,4.1-4.2c0.5-8,1.1-16,1.9-24c1.4-13.6,3-27.2,4.5-40.9c0.8-7.7,1.5-15.5,2.4-23.2
		c0.6-4.6,0.7-4.7-4.3-4.8c-18-0.1-36,0.3-54-0.2c-7.2-0.2-12.9,1.2-17.1,7.1c-2.3,3.3-5.6,4.1-9.6,4.1c-49.5-0.1-99-0.2-148.5,0
		c-4.6,0-8.2-1-11-4.6c-0.6-0.8-1.6-1.4-2.2-2.2c-2.6-3.5-6.1-4.2-10.4-4.2c-13.2,0.2-26.5,0-39.7,0c-6.4,0-12.7-0.1-19.1,0.1
		c-3.9,0.1-4.2,0.6-3.6,4c0.3,1.5,0.7,3,0.8,4.6c0.7,8.3,1.2,16.5,1.9,24.8c0.5,5.9,1.1,11.9,1.8,17.8c1.4,12.1,3.1,24.1,4.3,36.2
		c1,9.9,0.7,10,10.7,9.6c0.5,0,1.1,0,1.6,0c2.3-0.2,11-7,11.3-8.9c0.1-0.7-0.5-1.4-0.6-2.2c-0.2-1.3-0.5-2.5-0.5-3.8
		c0-18.7-0.1-37.5,0-56.2c0-4.6,0.8-5.3,5.7-5.3c7.7-0.1,15.4-0.1,23,0c5.4,0.1,5.9,0.6,6,5.8c0.1,12.5,0,25,0.1,37.5
		c0,3.6,0.5,7.1,0.7,10.7c3.1,0.2,6.2,0.4,9.3,0.7c2.3,0.3,4.6,0.9,7,1.3c2.7,0.5,3.8-0.7,3.8-3.4c-0.1-8.6,0-17.2,0-25.8
		c0-7.3-0.1-14.6,0-21.9c0.1-4,0.9-4.9,4.4-5c8.7-0.1,17.5-0.1,26.2,0c2.5,0,4,1.2,4.1,3.8c0.1,1.8,0,3.6,0,5.5
		c0,15.4,0,30.7,0,46.1c0,3.3,0.6,7.2-0.9,9.9c-1.8,3.4-6.3,1.2-9.6,1.7c-1.2,0.2-2.1,0.7-1,1.8c4.2,4.2,7.8,8.5,15.2,8
		C242.6,393.3,254,394,265.4,394z M374,251.8C374,251.8,374,251.8,374,251.8c10.1,0,20.1,0,30.2,0c1.9,0,3.1-0.5,2.3-2.7
		c-1.6-4.7-3.2-9.3-4.6-14c-1.1-3.3-3-4.9-6.8-5.2c-8.1-0.7-16.1-2.1-24.2-3.1c-6.1-0.8-10.7-3.2-13.8-8.8c-2.3-4-5.9-7.3-8.5-11.2
		c-1.5-2.2-3.2-3.2-5.8-3.1c-6.9,0.1-13.8-0.1-20.6,0.2c-1.6,0.1-3.7,0.8-4.7,2c-4.6,5.3-8.9,10.9-13.3,16.4
		c-1.5,1.8-2.9,3.7-4.7,5.3c-0.7,0.6-2.4,0.6-3.4,0.2c-1.2-0.5-2-1.7-3-2.5c-3.8-3.2-3.9-3.4-1-7.3c0.3-0.4,0.7-0.8,1-1.2
		c2.3-2.8,5.9-5.4,6.5-8.6c0.7-3.4-1.1-7.4-2.2-11c-3.2-10.2-0.8-9.1-11.9-9.1c-14.7-0.1-10.7,1.7-17.1-10.2
		c-2-3.7-3.2-8.7-6.3-10.5c-3.4-2-8.6-1.1-13.1-1.1c-3.9,0-8.6-0.7-11.5,1.1c-2.6,1.6-3.2,6.2-4.6,9.5c-2.1,5.1-2.1,5.2-7.9,5.2
		c-7.9,0-15.9,0.1-23.8-0.1c-2.7,0-4.5,0.7-5.4,3.4c-0.5,1.5-1.4,2.8-2.1,4.2c-1,1.8-0.7,3,1.7,3c3.4,0,6.9,0.1,10.3,0
		c2.5-0.1,3.9,1.1,4.6,3.4c0.9,2.7,2,5.4,2.7,8.1c0.7,3.3,2.3,4.7,5.9,4.5c7.7-0.3,15.4,0.1,23-0.2c4-0.1,6.4,1.5,8.2,4.8
		c2.4,4.6,5.1,9.1,7.7,13.6c3.9,6.8,7.7,13.6,11.7,20.3c1.2,2,0.9,3.3-0.8,4.6c-0.8,0.6-1.7,1.3-2.6,1.8c-4.6,2.7-5.3,2.4-7.9-2
		c-5.3-9-10.8-17.8-15.8-26.9c-1.7-3-3.7-3.9-7-3.8c-7.9,0.2-15.9,0.1-23.8,0c-5.3-0.1-6.1-0.8-7.7-5.9c-0.8-2.7-1.7-5.4-2.6-8.1
		c-0.6-1.9-1.9-2.8-4.1-2.8c-5.8,0.1-11.7,0.2-17.5-0.1c-3.4-0.2-5.2,1.1-6.7,4.1c-3.8,8-8.1,15.8-11.9,23.7c-1.5,3-3,4.9-6.8,5.3
		c-7.5,0.9-14.9,3.5-22.4,3.8c-6.9,0.3-8.8,4.6-11,9.4c-0.6,1.3-0.2,1.9,1.2,1.9c1.6,0,3.2,0.1,4.8,0.1c18.5,0,37.1,0.2,55.6-0.1
		c5.8-0.1,10.3,1.1,13.7,5.8c3.2,4.5,7.7,5.4,13.1,5.4c36.8-0.2,73.6-0.2,110.3,0.1c7.3,0.1,13.5-0.9,17.9-7.3
		c2.3-3.4,5.7-4,9.7-3.9C356,252,365,251.8,374,251.8z M145.8,264.1c-10.8,0-21.7,0-32.5,0c-1.9,0-3.8-0.2-5.5,0.2
		c-0.9,0.2-2.3,1.5-2.3,2.3c-0.2,5.2-0.2,10.4,0,15.6c0,0.8,1.4,2,2.4,2.3c1.2,0.4,2.6,0.1,3.9,0.1c19.8,0,39.7,0.2,59.5-0.1
		c5.8-0.1,10.3,1,13.7,5.7c3.2,4.5,7.6,5.5,13,5.4c44.4-0.2,88.9-0.3,133.3,0.1c7.2,0.1,12.9-1.2,17.1-7.1c2.3-3.3,5.6-4.1,9.6-4
		c20.1,0.2,40.2,0.1,60.3,0.1c1.9,0,3.8,0.2,5.5-0.2c1-0.2,2.3-1.5,2.4-2.3c0.2-5.2,0.2-10.4,0-15.6c0-0.8-1.4-2.1-2.4-2.3
		c-1.8-0.4-3.7-0.2-5.5-0.2c-21.2,0-42.3,0.2-63.5-0.1c-6.4-0.1-11.4,1.1-15.1,6.3c-2.9,4-6.8,4.9-11.7,4.9
		c-40.5-0.2-80.9-0.3-121.4,0.1c-7.2,0.1-12.9-1.2-17.1-7.2c-2.3-3.3-5.6-4.1-9.7-4C168.5,264.3,157.1,264.1,145.8,264.1z
		 M363.2,481.8c20.6,1.1,48.1-27.4,39.4-61.2c-3.3-12.7-10.8-22-22-29.1c-12.2-7.7-25.1-8.9-38.6-5.6c-13.2,3.2-23.2,10.7-29.9,22.4
		c-1.2,2.1-1.9,4.5-2.8,6.8c3.1,0.1,6.2,0.6,9.3,0.3c1.1-0.1,2.1-2.1,3-3.3c7.3-9.9,16.9-16.7,29.3-17.9
		c12.8-1.2,23.8,3.3,32.5,12.8c10.5,11.6,14.1,24.8,8,39.5c-6.5,15.6-18.6,24.3-35.7,25.2c-14,0.7-25.1-5.9-33-16.8
		c-3.2-4.5-6.6-5.2-11.2-4.9c-2.7,0.2-3.2,1-1.9,3.4C319.1,471.2,333.8,481,363.2,481.8z M127.2,432.9c0.4,3.6,0.4,7.3,1.3,10.8
		c3.1,13.2,10.7,23.6,22.3,30.7c12,7.3,25.1,8.8,38.7,5.4c13.1-3.3,23.3-10.7,29.9-22.4c1.2-2.1,1.9-4.5,2.8-6.8
		c-3.1-0.1-6.3-0.7-9.3-0.2c-1.3,0.2-2.4,2.5-3.4,3.9c-9.8,13.1-26,21-42.9,16c-16.3-4.8-29.8-20.1-29.2-38.2
		c0.4-14,7.4-24.6,19.2-32.1c9.8-6.2,20.6-7.9,31.8-4.3c9.3,3,16.7,8.9,21.9,17.1c1.5,2.3,3.3,3.2,5.9,3c2.1-0.2,4.1-0.5,6.2-0.7
		c-0.9-2.3-1.7-4.6-2.8-6.8c-0.7-1.4-1.6-2.7-2.5-3.9c-11.9-16.5-31.2-22.9-50.1-19.3C143.6,389.4,126.3,410.7,127.2,432.9z
		 M266.5,428.2C266.5,428.1,266.5,428.1,266.5,428.2c-27.8,0-55.6,0-83.4,0c-1.9,0-3.7-0.1-5.6,0c-4,0.3-5.7,1.8-5.6,5
		c0.1,3.1,1.8,4.4,6,4.6c1.8,0.1,3.7,0,5.6,0c55.3,0,110.6,0,165.9,0c1.9,0,3.7,0.1,5.6-0.1c2.8-0.2,4.3-1.7,4.4-4.5
		c0.1-2.9-1.5-4.6-4.8-4.9c-1.6-0.1-3.2,0-4.8,0C322.1,428.2,294.3,428.2,266.5,428.2z M345.8,415.8
		C345.8,415.8,345.8,415.8,345.8,415.8c3.4,0,6.9-0.2,10.3,0c10.3,0.8,18.3,12.1,15.4,21.2c-2.5,7.5-9.6,12.7-17.9,12.9
		c-5.6,0.1-11.1,0-16.7,0.1c-0.7,0-1.5,0.4-2.2,0.6c0.4,0.6,0.7,1.4,1.3,1.9c8.9,8.3,21,9.1,30.2,4.8c10.3-4.8,15.5-13.2,15.7-24.9
		c0.3-17.6-18.9-32.8-39.6-23.6c-2.9,1.3-5,4.2-7.5,6.3c2.9,0.2,5.7,0.4,8.6,0.6C344.2,415.9,345,415.8,345.8,415.8z M185.2,415.8
		C185.2,415.8,185.2,415.8,185.2,415.8c2.9,0,5.8,0.1,8.7,0c0.9,0,1.8-0.5,2.7-0.8c-0.6-0.8-1.2-1.7-2-2.4c-9-7.3-19.4-8.6-29.6-4
		c-10.6,4.9-15.8,13.8-15.5,25.8c0.3,9.8,7,19.9,16.8,23.3c10.7,3.8,20.7,2.4,29.3-5.5c0.4-0.3,0.6-0.8,0.9-1.3
		c-0.6-0.3-1.2-0.8-1.8-0.9c-5.8-0.1-11.6-0.1-17.5-0.1c-11.2,0-17.9-9.5-18-17.1c0-7.6,6.9-17.2,17.9-17.1
		C179.9,415.8,182.6,415.8,185.2,415.8z M266.1,415.8c8.7,0,17.5,0,26.2,0c2.5,0,7.1-6.2,6.4-8.4c-0.1-0.4-0.7-0.9-1.1-0.9
		c-1.3-0.2-2.6-0.2-4-0.2c-18.8,0-37.6,0-56.3,0c-1.1,0-2.2-0.1-3.1,0.2c-0.5,0.2-1.3,1.2-1.2,1.5c1,2.4,1.8,5,3.4,6.9
		c0.9,1,3.4,0.9,5.2,0.9C249.7,415.8,257.9,415.8,266.1,415.8z M159.4,351.3C159.4,351.3,159.4,351.3,159.4,351.3
		c0.1-5.5,0.1-10.9,0-16.4c-0.1-5.2-0.2-5.3-5.2-5.2c-4.4,0.1-4.5,0.1-4.5,4.3c-0.1,10.9-0.1,21.8,0,32.7c0,5.4,0.3,5.4,6,5.3
		c2.7-0.1,3.8-0.9,3.7-3.6C159.3,362.8,159.4,357.1,159.4,351.3z M215,350.9C215,350.9,215,350.9,215,350.9c0-5.7,0.1-11.4,0-17.2
		c-0.1-3.9-0.3-4-4.8-4c-4.5,0-4.8,0.1-4.9,4c-0.1,11.2-0.1,22.4,0,33.5c0,4.8,0.4,4.9,5.6,4.9c3,0,4.2-1,4.2-4.1
		C214.9,362.4,215,356.6,215,350.9z M326.2,351.3C326.2,351.3,326.2,351.3,326.2,351.3c0-6-0.1-11.9,0-17.9c0-2.7-1-3.8-3.7-3.6
		c-1.3,0.1-2.7-0.1-3.9,0.2c-0.8,0.2-1.9,1.3-1.9,1.9c-0.1,12.7-0.1,25.4,0,38.2c0,0.7,1.7,1.9,2.7,1.9c6.8,0.3,6.9,0.3,6.8-5.1
		C326.2,361.7,326.2,356.5,326.2,351.3z M381.8,350.9C381.8,350.9,381.8,350.9,381.8,350.9c0-5.7,0-11.4-0.1-17.2
		c-0.1-3.9-0.4-4-4.9-4c-4.4,0-4.7,0.1-4.8,4.1c-0.1,10.9-0.1,21.8,0,32.7c0,5.6,0.2,5.6,5.7,5.6c3.1,0,4.2-1.1,4.1-4.1
		C381.7,362.3,381.8,356.6,381.8,350.9z M111.4,415.8c2-0.6,5.1,1.5,6.6-1.8c1-2.2,1.6-4.6,2.5-7c-2.3-0.2-4.6-0.6-6.9-0.7
		c-2.1-0.1-4.2-0.1-6.3,0.1c-0.7,0.1-1.8,1.1-2,1.8c-0.3,1.7-0.4,3.6,0,5.3c0.2,0.9,1.5,1.7,2.6,2.1
		C108.9,416,110.1,415.8,111.4,415.8z M418.2,406.3c0-0.1-0.1-0.3-0.1-0.4c-2.5,0.5-4.9,0.9-7.4,1.4c0.8,2.1,1.8,4.2,2.5,6.4
		c0.6,1.8,1.9,2.2,3.6,2.2c1.8,0,3.7-0.2,5.5,0c3.2,0.3,4-1.3,4-4.1c0-5.2,0-5.3-5.7-5.5C419.8,406.2,419,406.3,418.2,406.3z"/>
	<path d="M248.4,350.9c0-9.1-0.1-18.2,0-27.3c0.1-5.7,0.5-6.1,6.4-6.1c7.7-0.1,15.3-0.1,23,0c4.4,0.1,5.2,0.8,5.2,5
		c0.1,19,0.1,38,0,57c0,4.2-0.8,4.9-5.2,5c-7.7,0.1-15.3,0.1-23,0c-6-0.1-6.4-0.5-6.4-6.1C248.3,369.1,248.4,360,248.4,350.9z
		 M270.6,351C270.6,351,270.6,351,270.6,351c0-5.2,0.1-10.4,0-15.6c-0.1-5.7-0.5-6-6.4-5.6c-2.3,0.1-3.3,0.9-3.3,3.2
		c0,12,0,23.9,0,35.9c0,2.3,0.9,3.4,3.3,3.3c1.1,0,2.1,0,3.2,0c2.3,0.1,3.3-0.9,3.3-3.2C270.6,362.9,270.6,356.9,270.6,351z"/>
	<path d="M272,203.4c0,5.5-0.7,6.1-6.6,6.1c-5.2,0-5.9-0.8-6-5.8c0-5.7,0.7-6.4,6.2-6.5C271.3,197.1,272,197.8,272,203.4z"/>
	<path d="M205.3,236c0,5.6-0.6,6.3-6.3,6.2c-5.5,0-6.2-0.8-6.2-6.4c0.1-5.1,0.8-5.8,5.9-5.9C204.5,229.9,205.3,230.6,205.3,236z"/>
	<path d="M288.2,240.9c5.3,0,6.1,0.9,6,6.6c-0.1,5-0.8,5.7-6.1,5.7c-5.7,0-6.4-0.6-6.4-6.2C281.7,241.6,282.5,240.8,288.2,240.9z"/>
	<path d="M243.4,178.9c0,0,0.3-2.9,1.2-3c3-0.5,6.1-0.1,9.2,0c0.3,0,0.7,0.8,0.8,1.2c0.2,1,0.2,2.1,0.2,3.1c0.2,7.1-2.4,9.1-9.4,7.2
		c-0.8-0.2-1.7-1.3-1.9-2C243.2,183.9,243.4,182.3,243.4,178.9z"/>
	<path d="M366,235.8c0,1,0,2.1,0,3.1c0.1,2.2-0.9,3.4-3.2,3.4c-9.1,0-8.2,0.9-8.3-8.6c0-2.5,0.9-4,3.7-3.8c0.5,0,1.1,0,1.6,0
		C366,229.9,366,229.9,366,235.8z"/>
	<path d="M321.1,247.2c-1.1,0-2.1,0-3.2,0c-1.9-0.1-2.9-1-2.8-2.9c0.1-2.1,0-4.1,0.2-6.2c0.1-0.6,0.8-1.7,1.2-1.7
		c3.1-0.2,6.3-0.2,9.4-0.1c0.5,0,1.3,0.9,1.5,1.5c0.3,1,0.2,2,0.2,3.1C327.7,247.3,327.7,247.3,321.1,247.2z"/>
	<path d="M188.1,220.5c-0.1,4.8-0.1,4.8-4.8,4.9c-1.3,0-2.6,0-4,0c-2,0-2.8-1-2.8-2.9c0-1.3,0-2.6,0-3.9c0.1-4.4,0.1-4.4,4.3-4.5
		c0.3,0,0.5,0,0.8,0C188.3,214,188.3,214,188.1,220.5z"/>
	<path d="M326.9,214.1c5.7,0,5.7,0,5.8,5.4c0,5.9,0,5.9-6.1,5.9c-5.4,0-5.4,0-5.4-5.8C321.2,214.1,321.2,214.1,326.9,214.1z"/>
	<path d="M226.9,258.2c-5.9,0-5.9,0-5.8-6.2c0-5.1,0-5.1,5.3-5.1c6.2,0,6.2,0,6.2,5.8C232.6,258.2,232.6,258.2,226.9,258.2z"/>
</g>
<polygon class="st0" points="196.2,87.1 204.3,103 214.4,103 232.5,87.1 222.4,73.3 196.2,73.3 "/>
<polygon class="st0" points="232.5,118.8 232.5,130.7 242.5,136.6 248.6,126.7 "/>
<path class="st1" d="M315,29.8c-6,7.9-6,21.8-6,21.8l18.1,9.9l7.7-8.2l-1.6-11.6L315,29.8z"/>
<line class="st2" x1="377.4" y1="29.8" x2="365.3" y2="39.6"/>
<polygon class="st1" points="417.7,23.8 402.6,45.6 425.7,45.6 438.9,39.8 460.9,39.6 462,29.8 "/>
<polygon class="st1" points="176.1,118.8 172.1,136.6 182.2,136.6 192.2,152.4 198.3,142.6 198.3,128.7 "/>
<line class="st1" x1="280.8" y1="110.9" x2="309" y2="127.7"/>
<line class="st1" x1="272" y1="89.1" x2="302.9" y2="103"/>
<line class="st1" x1="283.1" y1="73.3" x2="309" y2="83.8"/>
<path class="st2" d="M513.3,106.3l-203.2,29.4c-20.9,2.7-40.1-11.8-42.9-32.4l0,0c-2.7-20.6,12-39.5,33-42.2l213.1-29.4"/>
<path class="st3" d="M513.3,119.7L342,145.5c-20.9,2.7-40.1-11.8-42.9-32.4v0c-2.7-20.6,12-39.5,33-42.2l181.2-25.8"/>
<ellipse class="st2" cx="344.2" cy="104" rx="15.1" ry="14.8"/>
<ellipse class="st2" cx="402.6" cy="96" rx="15.1" ry="14.8"/>
<ellipse class="st2" cx="460.9" cy="88.1" rx="15.1" ry="14.8"/>
<path class="st2" d="M513.3,99c-8.3,0-15.1-6.6-15.1-14.8s6.8-14.8,15.1-14.8"/>
</svg>
