<?xml version="1.0" encoding="utf-8"?>
<!-- Generator: Adobe Illustrator 23.0.0, SVG Export Plug-In . SVG Version: 6.00 Build 0)  -->
<svg version="1.1" id="Camada_1" xmlns="http://www.w3.org/2000/svg" xmlns:xlink="http://www.w3.org/1999/xlink" x="0px" y="0px"
	 viewBox="0 0 512 512" style="enable-background:new 0 0 512 512;" xml:space="preserve">
<style type="text/css">
	.st0{fill:#FFFFFF;stroke:#000000;stroke-width:10;stroke-linecap:round;stroke-linejoin:round;stroke-miterlimit:10;}
	.st1{fill:none;stroke:#000000;stroke-width:10;stroke-linecap:round;stroke-linejoin:round;stroke-miterlimit:10;}
</style>
<g>
	<path d="M418.3,226c2.5-0.2,5.1-0.1,7.7,0c5.3,0.1,5.8,0.3,5.9,3.1c0.1,3.1,0,6.1,0,9.6c0.4,6.6-0.8,13.4-2.6,20.3
		c-1,3.7-1.1,7.5-1.8,11.2c-1.3,6.9-2.8,13.7-4.1,20.6c-0.7,3.3-1.3,6.6-1.7,9.9c0,0.4,1.3,1.1,2.2,1.3c2.4,0.4,5.8-0.6,7.1,0.8
		c1.1,1.3,0.9,2.9,1,4.4c0.1,2.8,0,5.6,0,8.3c0,4.7,0,4.7-8.3,4.7c-3.1,0-6.2,0.1-9.2,0c-2.9-0.1-4.1,0.4-4.1,2.1
		c0.3,5.8-2.9,11.2-8,16.2c-9,8.8-23,13.8-40.9,16c-16.9,2.1-32-0.6-45.7-5.6c-8.5-3.1-15.6-7.3-19-12.8c-2.3-3.7-6.2-4.6-13-4.4
		c-14.3,0.3-28.7,0.2-43,0c-3.6,0-5.5,0.6-6.9,2.4c-3.4,4.4-7.6,8.4-14.2,11.7c-12.7,6.2-27.3,9.8-44.5,9.2
		c-13.9-0.4-26.2-3.3-36.6-8.4c-13.2-6.5-19.6-14.7-20.1-24.3c-0.1-2.2-0.2-2.2-4.5-2.2c-4.4,0-8.7,0-13.1,0c-2.4,0-3.9-0.7-3.9-2
		c0-4.7,0-9.5,0-14.2c0-1.4,1.5-2,3.9-2c1.3,0,2.6,0,3.8,0c1.9,0,2.7-0.5,2.5-1.6c-1.5-8.4-3-16.8-4.6-25.2c-1.5-8-2.6-16-4.7-23.9
		c-1.9-7.4-0.7-14.7-1-22c-0.1-2.9,0.5-3.1,5.6-3.2c1.5,0,3.1-0.1,4.6,0 M264,302c11.3,0,22.6-0.3,33.8,0.1
		c7.3,0.3,10.7-2.1,14.7-4.3c1.1-0.6,0-0.9-1.2-0.9c-1.5,0-3.1,0-4.6,0c-4.8-0.1-5.3-0.4-5.4-2.9c-0.1-10-0.1-20,0-30.1
		c0-2.4,0.7-2.8,5.6-2.8c7.4-0.1,14.9-0.1,22.3,0c5.1,0,5.7,0.3,5.7,3.2c0.1,6.7,0,13.4,0,20c0,1.8,0,3.6,0.1,5.4
		c0,1.1,1.1,1.5,2.9,1.4c4.6-0.2,9.1-0.6,13.7-0.7c2.7-0.1,3.6-0.6,3.5-2c-0.1-4.3,0-8.6,0-12.9c0-3.9-0.1-7.8,0-11.7
		c0.1-2.1,0.8-2.6,4.3-2.6c8.5-0.1,16.9,0,25.4,0c2.5,0,3.8,0.7,3.9,2c0.1,1,0,1.9,0,2.9c0,8.3,0,16.7-0.1,25c0,1.8-0.6,3.5-0.8,5.3
		c-0.1,0.5,0.1,1.1,0.7,1.4c4.2,2.4,8.1,5.2,15.5,4.1c0.7-0.1,1.5-0.1,2.3,0c3.1,0.2,3.8-0.7,4-2.2c0.5-4.3,1.1-8.6,1.9-12.8
		c1.4-7.3,2.9-14.6,4.4-21.8c0.8-4.1,1.4-8.3,2.4-12.4c0.6-2.4,0.7-2.5-4.1-2.5c-17.4,0-34.9,0.1-52.3-0.1c-7-0.1-12.5,0.7-16.6,3.8
		c-2.3,1.7-5.4,2.2-9.3,2.2c-47.9-0.1-95.8-0.1-143.8,0c-4.5,0-8-0.5-10.7-2.5c-0.6-0.4-1.5-0.8-2.1-1.2c-2.5-1.9-5.9-2.3-10.1-2.2
		c-12.8,0.1-25.6,0-38.4,0c-6.2,0-12.3,0-18.5,0c-3.8,0-4.1,0.3-3.5,2.2c0.3,0.8,0.7,1.6,0.8,2.4c0.7,4.4,1.2,8.8,1.9,13.3
		c0.5,3.2,1.1,6.3,1.7,9.5c1.3,6.5,3,12.9,4.1,19.3c0.9,5.3,0.7,5.3,10.4,5.1c0.5,0,1,0,1.5,0c2.2-0.1,10.7-3.7,11-4.8
		c0.1-0.4-0.5-0.8-0.6-1.2c-0.2-0.7-0.5-1.4-0.5-2c0-10-0.1-20,0-30.1c0-2.5,0.7-2.8,5.5-2.8c7.4-0.1,14.9,0,22.3,0
		c5.2,0,5.7,0.3,5.8,3.1c0.1,6.7,0,13.4,0.1,20c0,1.9,0.5,3.8,0.7,5.7c3,0.1,6,0.2,9,0.4c2.3,0.1,4.5,0.5,6.7,0.7
		c2.6,0.3,3.7-0.4,3.7-1.8c-0.1-4.6,0-9.2,0-13.8c0-3.9-0.1-7.8,0-11.7c0.1-2.1,0.8-2.6,4.2-2.7c8.5-0.1,16.9,0,25.4,0
		c2.4,0,3.8,0.7,3.9,2c0.1,1,0,1.9,0,2.9c0,8.2,0,16.4,0,24.6c0,1.8,0.6,3.8-0.8,5.3c-1.8,1.8-6.1,0.6-9.3,0.9c-1.2,0.1-2.1,0.4-1,1
		c4,2.3,7.5,4.6,14.7,4.3C241.9,301.6,253,302,264,302z M369.1,226C369.1,226,369.1,226,369.1,226c9.7,0,19.5,0,29.2,0 M196.8,229
		c3.1,2.4,7.4,2.9,12.7,2.9c35.6-0.1,71.2-0.1,106.8,0c7.1,0,13.1-0.5,17.3-3.9 M148.2,232.5c-10.5,0-21,0-31.5,0
		c-1.8,0-3.6-0.1-5.4,0.1c-0.9,0.1-2.2,0.8-2.3,1.2c-0.2,2.8-0.2,5.6,0,8.3c0,0.4,1.4,1,2.3,1.2c1.1,0.2,2.5,0.1,3.8,0.1
		c19.2,0,38.4,0.1,57.6-0.1c5.6-0.1,10,0.5,13.2,3.1c3.1,2.4,7.3,2.9,12.6,2.9c43-0.1,86-0.1,129,0c7,0,12.5-0.7,16.6-3.8
		c2.3-1.8,5.4-2.2,9.3-2.2c19.5,0.1,38.9,0,58.4,0c1.8,0,3.6,0.1,5.4-0.1c0.9-0.1,2.2-0.8,2.3-1.2c0.2-2.8,0.2-5.6,0-8.3
		c0-0.4-1.4-1.1-2.3-1.2c-1.7-0.2-3.6-0.1-5.4-0.1c-20.5,0-41,0.1-61.4-0.1c-6.2-0.1-11,0.6-14.6,3.4c-2.8,2.2-6.6,2.6-11.3,2.6
		c-39.2-0.1-78.4-0.1-117.5,0c-7,0-12.5-0.6-16.5-3.8c-2.2-1.8-5.4-2.2-9.3-2.1C170.2,232.6,159.2,232.5,148.2,232.5z M358.7,348.9
		c19.9,0.6,46.6-14.6,38.2-32.7c-3.2-6.8-10.4-11.8-21.3-15.6c-11.8-4.1-24.3-4.7-37.4-3c-12.8,1.7-22.5,5.7-28.9,12
		c-1.2,1.1-1.8,2.4-2.7,3.6c3,0.1,6,0.3,9,0.1c1.1-0.1,2-1.1,2.9-1.8c7.1-5.3,16.3-8.9,28.4-9.6c12.4-0.7,23.1,1.8,31.5,6.9
		c10.2,6.2,13.6,13.3,7.7,21.1c-6.2,8.3-18,13-34.5,13.5c-13.5,0.4-24.3-3.1-31.9-9c-3.1-2.4-6.4-2.8-10.8-2.6
		c-2.6,0.1-3.1,0.5-1.8,1.8C316,343.3,330.2,348.5,358.7,348.9z M130.2,322.8c0.4,1.9,0.4,3.9,1.2,5.8c3,7.1,10.4,12.6,21.6,16.4
		c11.6,3.9,24.3,4.7,37.5,2.9c12.7-1.8,22.5-5.7,28.9-12c1.2-1.1,1.8-2.4,2.7-3.6c-3-0.1-6.1-0.4-9-0.1c-1.3,0.1-2.3,1.3-3.3,2.1
		c-9.5,7-25.1,11.2-41.5,8.5c-15.8-2.6-28.8-10.8-28.3-20.4c0.4-7.5,7.2-13.2,18.6-17.2c9.5-3.3,20-4.2,30.8-2.3
		c9,1.6,16.1,4.8,21.2,9.2c1.4,1.2,3.1,1.7,5.7,1.6c2-0.1,4-0.2,6-0.4c-0.9-1.2-1.7-2.5-2.7-3.6c-0.6-0.7-1.6-1.4-2.4-2.1
		c-11.5-8.8-30.2-12.2-48.5-10.3C146.1,299.5,129.3,310.9,130.2,322.8z M265.1,320.2C265.1,320.2,265.1,320.2,265.1,320.2
		c-26.9,0-53.8,0-80.7,0c-1.8,0-3.6,0-5.4,0c-3.9,0.1-5.6,1-5.4,2.6c0.1,1.6,1.7,2.3,5.8,2.4c1.8,0,3.6,0,5.4,0
		c53.5,0,107.1,0,160.6,0c1.8,0,3.6,0,5.4,0c2.7-0.1,4.2-0.9,4.3-2.4c0.1-1.6-1.4-2.5-4.7-2.6c-1.5-0.1-3.1,0-4.6,0
		C318.9,320.2,292,320.2,265.1,320.2z M341.9,313.6C341.9,313.6,341.9,313.6,341.9,313.6c3.3,0,6.7-0.1,10,0
		c10,0.5,17.8,6.5,14.9,11.4c-2.4,4-9.3,6.8-17.3,6.9c-5.4,0-10.8,0-16.1,0c-0.7,0-1.4,0.2-2.1,0.3c0.4,0.3,0.7,0.7,1.2,1
		c8.6,4.4,20.4,4.8,29.2,2.6c10-2.6,15-7.1,15.2-13.3c0.3-9.4-18.3-17.5-38.3-12.6c-2.8,0.7-4.8,2.2-7.2,3.4
		c2.8,0.1,5.5,0.2,8.3,0.3C340.3,313.7,341.1,313.6,341.9,313.6z M186.4,313.6C186.4,313.6,186.4,313.6,186.4,313.6
		c2.8,0,5.6,0.1,8.4,0c0.9,0,1.8-0.3,2.7-0.4c-0.6-0.4-1.1-0.9-1.9-1.3c-8.7-3.9-18.8-4.6-28.7-2.1c-10.3,2.6-15.3,7.4-15,13.8
		c0.3,5.3,6.8,10.6,16.2,12.5c10.4,2,20.1,1.3,28.4-2.9c0.4-0.2,0.6-0.5,0.8-0.7c-0.6-0.2-1.2-0.5-1.8-0.5c-5.6,0-11.3-0.1-16.9-0.1
		c-10.8,0-17.4-5.1-17.4-9.1c0-4.1,6.6-9.2,17.4-9.1C181.3,313.6,183.8,313.6,186.4,313.6z M264.7,313.6c8.5,0,16.9,0,25.4,0
		c2.5,0,6.9-3.3,6.2-4.5c-0.1-0.2-0.7-0.5-1.1-0.5c-1.3-0.1-2.6-0.1-3.8-0.1c-18.2,0-36.4,0-54.5,0c-1,0-2.1-0.1-3,0.1
		c-0.5,0.1-1.3,0.6-1.1,0.8c0.9,1.3,1.7,2.7,3.3,3.7c0.9,0.5,3.3,0.5,5,0.5C248.8,313.7,256.7,313.6,264.7,313.6z M161.4,279.2
		C161.4,279.2,161.4,279.2,161.4,279.2c0.1-2.9,0.1-5.8,0-8.7c-0.1-2.8-0.2-2.8-5-2.8c-4.2,0-4.4,0-4.4,2.3
		c-0.1,5.8-0.1,11.7,0,17.5c0,2.9,0.3,2.9,5.8,2.8c2.6,0,3.7-0.5,3.6-1.9C161.3,285.3,161.4,282.2,161.4,279.2z M215.2,278.9
		C215.2,278.9,215.2,278.9,215.2,278.9c0-3.1,0.1-6.1,0-9.2c-0.1-2.1-0.3-2.2-4.7-2.2c-4.4,0-4.7,0.1-4.7,2.1c-0.1,6-0.1,12,0,17.9
		c0,2.6,0.4,2.6,5.4,2.6c2.9,0,4.1-0.5,4-2.2C215.1,285.1,215.2,282,215.2,278.9z M322.9,279.1C322.9,279.1,322.9,279.1,322.9,279.1
		c0-3.2-0.1-6.4,0-9.6c0-1.4-1-2-3.6-1.9c-1.3,0.1-2.6-0.1-3.8,0.1c-0.7,0.1-1.8,0.7-1.8,1c-0.1,6.8-0.1,13.6,0,20.4
		c0,0.4,1.7,1,2.6,1c6.6,0.1,6.7,0.2,6.6-2.7C322.8,284.7,322.9,281.9,322.9,279.1z M376.7,278.9
		C376.7,278.9,376.7,278.9,376.7,278.9c0-3.1,0-6.1-0.1-9.2c-0.1-2.1-0.3-2.1-4.7-2.1c-4.3,0-4.6,0.1-4.6,2.2
		c-0.1,5.8-0.1,11.7,0,17.5c0,3,0.2,3,5.5,3c3,0,4-0.6,4-2.2C376.6,285,376.7,282,376.7,278.9z M115,313.6c1.9-0.3,5,0.8,6.4-1
		c1-1.2,1.6-2.5,2.4-3.7c-2.2-0.1-4.4-0.3-6.6-0.4c-2-0.1-4.1-0.1-6.1,0.1c-0.7,0.1-1.8,0.6-1.9,1c-0.3,0.9-0.4,1.9,0,2.9
		c0.2,0.5,1.5,0.9,2.5,1.1C112.5,313.8,113.6,313.6,115,313.6z M411.9,308.5c0-0.1-0.1-0.2-0.1-0.2c-2.4,0.3-4.8,0.5-7.2,0.8
		c0.8,1.1,1.7,2.3,2.4,3.4c0.6,1,1.9,1.2,3.5,1.2c1.8,0,3.6-0.1,5.3,0c3.1,0.2,3.9-0.7,3.8-2.2c0-2.8,0-2.9-5.5-2.9
		C413.5,308.5,412.7,308.5,411.9,308.5z"/>
	<path d="M247.5,278.9c0-4.9-0.1-9.7,0-14.6c0.1-3,0.5-3.2,6.2-3.3c7.4,0,14.9-0.1,22.3,0c4.2,0,5,0.4,5.1,2.7
		c0.1,10.2,0.1,20.3,0,30.5c0,2.2-0.8,2.6-5.1,2.7c-7.4,0.1-14.9,0.1-22.3,0c-5.8,0-6.2-0.2-6.2-3.3
		C247.5,288.7,247.5,283.8,247.5,278.9z M269,279C269,279,269.1,279,269,279c0-2.8,0.1-5.6,0-8.3c-0.1-3.1-0.5-3.2-6.2-3
		c-2.2,0.1-3.2,0.5-3.2,1.7c0,6.4,0,12.8,0,19.2c0,1.2,0.9,1.8,3.2,1.7c1,0,2,0,3.1,0c2.2,0.1,3.2-0.5,3.2-1.7
		C269,285.4,269,282.2,269,279z"/>
	<path d="M199.7,220.9"/>
</g>
<rect x="76.2" y="216" class="st0" width="360.5" height="21.4"/>
<path class="st0" d="M106.4,247.2c0-4.6,9.7-127.6,9.7-127.6h292.3L428,247.2H106.4z"/>
<polygon class="st1" points="115.2,120.5 148.3,212.1 372.4,212.1 405.6,120.5 "/>
<path class="st0" d="M449.4,411.1l-73-70.7l-26.6-51.4l-53.4,20.5l-27.3-31.2L236,313.4c0,0-55.4,9.2-48.7,15.6
	c6.6,6.4-30,50-36.6,56.4c-6.6,6.4-73,12.8-73,12.8l-19.9,12.8v22.5l139.4,16.1l48.4,24.3l77.7-24.3h66.4l59.8-6.4V411.1z"/>
<rect x="39.2" y="119.5" class="st0" width="36.9" height="245.5"/>
<rect x="435.9" y="119.5" class="st0" width="36.9" height="245.5"/>
<rect x="184.4" y="378.7" width="7.8" height="7.8"/>
<rect x="213.6" y="337.8" width="7.8" height="7.8"/>
<rect x="266.2" y="302.7" width="7.8" height="7.8"/>
<rect x="285.7" y="324.1" width="7.8" height="7.8"/>
<rect x="258.4" y="328" width="7.8" height="7.8"/>
<rect x="231.2" y="361.2" width="7.8" height="7.8"/>
<rect x="172.7" y="421.6" width="7.8" height="7.8"/>
<rect x="106.4" y="409.9" width="7.8" height="7.8"/>
<rect x="217.5" y="413.8" width="7.8" height="7.8"/>
<rect x="318.8" y="409.9" width="7.8" height="7.8"/>
<rect x="365.6" y="409.9" width="7.8" height="7.8"/>
<rect x="365.6" y="431.3" width="7.8" height="7.8"/>
<rect x="332.5" y="328" width="7.8" height="7.8"/>
<rect x="352" y="369" width="7.8" height="7.8"/>
<rect x="291.6" y="370.9" width="7.8" height="7.8"/>
<rect x="414.3" y="421.6" width="7.8" height="7.8"/>
<rect x="256.5" y="378.7" width="7.8" height="7.8"/>
<rect x="281.8" y="431.3" width="7.8" height="7.8"/>
<rect x="318.8" y="357.3" width="7.8" height="7.8"/>
<rect x="400.7" y="390.4" width="7.8" height="7.8"/>
<rect x="244.8" y="431.3" width="7.8" height="7.8"/>
<rect x="178.5" y="308.6" width="7.8" height="7.8"/>
</svg>
