<?xml version="1.0" encoding="utf-8"?>
<!-- Generator: Adobe Illustrator 23.0.0, SVG Export Plug-In . SVG Version: 6.00 Build 0)  -->
<svg version="1.1" id="Camada_1" xmlns="http://www.w3.org/2000/svg" xmlns:xlink="http://www.w3.org/1999/xlink" x="0px" y="0px"
	 viewBox="0 0 512 512" style="enable-background:new 0 0 512 512;" xml:space="preserve">
<style type="text/css">
	.st0{fill:none;stroke:#000000;stroke-width:12;stroke-linecap:round;stroke-linejoin:round;stroke-miterlimit:10;}
	.st1{fill:none;stroke:#000000;stroke-width:7;stroke-linecap:round;stroke-linejoin:round;stroke-miterlimit:10;}
	.st2{fill:none;stroke:#000000;stroke-width:8;stroke-linecap:round;stroke-linejoin:round;stroke-miterlimit:10;}
</style>
<g>
	<path d="M216,232h-32v-72c0-4.4-3.6-8-8-8h-32v-24c0-4.4-3.6-8-8-8h-24V80c0-4.4-3.6-8-8-8s-8,3.6-8,8v11.1l-4.4-2.2
		c-4-2-8.8-0.4-10.7,3.6c-2,4-0.4,8.8,3.6,10.7l11.6,5.8V120h-8c-4.4,0-8,3.6-8,8v24H64c-4.4,0-8,3.6-8,8v72H16c-4.4,0-8,3.6-8,8
		c0,0.7,0.1,1.3,0.2,1.9L37.8,360H16c-4.4,0-8,3.6-8,8s3.6,8,8,8h480c4.4,0,8-3.6,8-8s-3.6-8-8-8h-51.1l58.2-116.4
		c2-4,0.4-8.8-3.6-10.7c-1.1-0.6-2.3-0.8-3.6-0.8h-40 M440,232h-96 M328,232h-96 M96,136h32v16H96V136z M72,168h96v8h-56
		c-4.4,0-8,3.6-8,8v32c0,4.4,3.6,8,8,8h56v8H72V168z M168,192v16h-48v-16H168z M427.1,360H54.3l-28-112h456.8L427.1,360z"/>
	<path d="M120,264H56c-4.4,0-8,3.6-8,8s3.6,8,8,8h64c4.4,0,8-3.6,8-8S124.4,264,120,264z"/>
	<path d="M152,264h-8c-4.4,0-8,3.6-8,8s3.6,8,8,8h8c4.4,0,8-3.6,8-8S156.4,264,152,264z"/>
	<path d="M496,400c-11.1,0-16.2-3-22.6-6.9c-7.1-4.3-15.2-9.1-30.8-9.1s-23.6,4.9-30.8,9.1c-6.4,3.8-11.4,6.9-22.6,6.9
		s-16.2-3-22.5-6.9c-7.1-4.3-15.2-9.1-30.8-9.1s-23.6,4.9-30.8,9.1c-6.4,3.8-11.4,6.9-22.6,6.9s-16.2-3-22.5-6.9
		c-7.1-4.3-15.2-9.1-30.8-9.1s-23.6,4.9-30.8,9.1c-6.4,3.8-11.4,6.9-22.5,6.9s-16.2-3-22.6-6.9c-7.1-4.3-15.2-9.1-30.8-9.1
		s-23.6,4.9-30.8,9.1c-6.4,3.8-11.4,6.9-22.6,6.9s-16.2-3-22.6-6.9c-7.1-4.3-15.2-9.1-30.8-9.1c-4.4,0-8,3.6-8,8s3.6,8,8,8
		c11.1,0,16.2,3,22.5,6.9c7.1,4.3,15.2,9.1,30.8,9.1s23.6-4.9,30.8-9.1c6.4-3.8,11.4-6.9,22.5-6.9s16.2,3,22.6,6.9
		c7.1,4.3,15.2,9.1,30.8,9.1s23.6-4.9,30.8-9.1c6.4-3.8,11.4-6.9,22.5-6.9s16.2,3,22.6,6.9c7.1,4.3,15.2,9.1,30.8,9.1
		s23.6-4.9,30.8-9.1c6.4-3.8,11.4-6.9,22.5-6.9s16.2,3,22.5,6.9c7.1,4.3,15.2,9.1,30.8,9.1s23.6-4.9,30.8-9.1
		c6.4-3.8,11.4-6.9,22.6-6.9s16.2,3,22.6,6.9c7.1,4.3,15.2,9.1,30.8,9.1c4.4,0,8-3.6,8-8S500.4,400,496,400z"/>
	<path d="M496,432c-11.1,0-16.2-3-22.6-6.9c-7.1-4.3-15.2-9.1-30.8-9.1s-23.6,4.9-30.8,9.1c-6.4,3.8-11.4,6.9-22.6,6.9
		s-16.2-3-22.5-6.9c-7.1-4.3-15.2-9.1-30.8-9.1s-23.6,4.9-30.8,9.1c-6.4,3.8-11.4,6.9-22.6,6.9s-16.2-3-22.5-6.9
		c-7.1-4.3-15.2-9.1-30.8-9.1s-23.6,4.9-30.8,9.1c-6.4,3.8-11.4,6.9-22.5,6.9s-16.2-3-22.6-6.9c-7.1-4.3-15.2-9.1-30.8-9.1
		s-23.6,4.9-30.8,9.1c-6.4,3.8-11.4,6.9-22.6,6.9s-16.2-3-22.6-6.9c-7.1-4.3-15.2-9.1-30.8-9.1c-4.4,0-8,3.6-8,8s3.6,8,8,8
		c11.1,0,16.2,3,22.5,6.9c7.1,4.3,15.2,9.1,30.8,9.1s23.6-4.9,30.8-9.1c6.4-3.8,11.4-6.9,22.5-6.9s16.2,3,22.6,6.9
		c7.1,4.3,15.2,9.1,30.8,9.1s23.6-4.9,30.8-9.1c6.4-3.8,11.4-6.9,22.5-6.9s16.2,3,22.6,6.9c7.1,4.3,15.2,9.1,30.8,9.1
		s23.6-4.9,30.8-9.1c6.4-3.8,11.4-6.9,22.5-6.9s16.2,3,22.5,6.9c7.1,4.3,15.2,9.1,30.8,9.1s23.6-4.9,30.8-9.1
		c6.4-3.8,11.4-6.9,22.6-6.9s16.2,3,22.6,6.9c7.1,4.3,15.2,9.1,30.8,9.1c4.4,0,8-3.6,8-8S500.4,432,496,432z"/>
</g>
<polygon class="st0" points="219,224 208,232 208,237 476,237 454,219 440,192 392,152 371,142.2 344,152 322,136 289.6,147.8 
	265,187 244,200 "/>
<path class="st0" d="M349,29l-27,10l-25,35h37l19-15l159-5V20C505,20,349,29,349,29z"/>
<line class="st1" x1="305" y1="85" x2="305" y2="109"/>
<line class="st1" x1="320" y1="97" x2="320" y2="116"/>
<line class="st1" x1="335" y1="91" x2="335" y2="102"/>
<line class="st1" x1="305" y1="125" x2="305" y2="135.2"/>
<line class="st2" x1="312" y1="168" x2="312" y2="182"/>
<line class="st2" x1="335" y1="178.5" x2="335" y2="194.5"/>
<rect x="280" y="192" width="11" height="11"/>
<rect x="386.5" y="189" width="11" height="11"/>
<rect x="243.7" y="213.5" width="11" height="11"/>
<rect x="366" y="162.5" width="11" height="11"/>
<rect x="351" y="197.5" width="11" height="11"/>
<rect x="299.5" y="208" width="11" height="11"/>
<rect x="422.5" y="208" width="11" height="11"/>
<rect x="371.5" y="213.5" width="11" height="11"/>
</svg>
