<?xml version="1.0" encoding="utf-8"?>
<!-- Generator: Adobe Illustrator 23.0.0, SVG Export Plug-In . SVG Version: 6.00 Build 0)  -->
<svg version="1.1" id="Camada_1" xmlns="http://www.w3.org/2000/svg" xmlns:xlink="http://www.w3.org/1999/xlink" x="0px" y="0px"
	 viewBox="0 0 512 512" style="enable-background:new 0 0 512 512;" xml:space="preserve">
<style type="text/css">
	.st0{fill:#FFFFFF;stroke:#000000;stroke-width:10;stroke-linecap:round;stroke-linejoin:round;stroke-miterlimit:10;}
	.st1{fill:#FFFFFF;stroke:#000000;stroke-width:6;stroke-linecap:round;stroke-linejoin:round;stroke-miterlimit:10;}
</style>
<path class="st0" d="M45.8,378.7l46.3,36.6l42.4,13.5v25.1l59.8,19.3l65,7.7c0,0,44.9-21.2,50.7-21.2s48.2,5.8,48.2,5.8l36.6-9.6
	l46.3-26h34.7c0,0-5.8-26-13.5-31.8c-7.7-5.8-52.1-52.1-52.1-52.1l-44.4-46.3l-46.3-59.8l-25.1-46.3l-33.8-17.4H229l-36.6,38.6
	l-23.1,32.8c0,0-13.5,43.2-38.6,43.8c-25.1,0.6-48.2,27.6-48.2,27.6l-46.3,34.7L45.8,378.7z"/>
<path class="st0" d="M512,104.2H292.8c-12.8,0-23.1-10.4-23.1-23.1v0c0-12.8,10.4-23.1,23.1-23.1H512V104.2z"/>
<circle class="st1" cx="306" cy="81.5" r="9.2"/>
<circle class="st1" cx="355.5" cy="81.5" r="9.2"/>
<circle class="st1" cx="405" cy="81.5" r="9.2"/>
<circle class="st1" cx="454.4" cy="81.5" r="9.2"/>
<circle class="st1" cx="503.9" cy="81.5" r="9.2"/>
<line class="st0" x1="244.8" y1="96.7" x2="244.8" y2="122.8"/>
<path class="st0" d="M266.6,49.7c0,0-21.2-5.2-21.2,16.9"/>
<rect x="215.1" y="135.1" width="11.1" height="11.1"/>
<rect x="192.9" y="244.9" width="11.1" height="11.1"/>
<rect x="233.7" y="148.5" width="11.1" height="11.1"/>
<rect x="244.8" y="223.5" width="11.1" height="11.1"/>
<rect x="220.7" y="206.7" width="11.1" height="11.1"/>
<rect x="291.3" y="250.5" width="11.1" height="11.1"/>
<rect x="296.9" y="416.1" width="11.1" height="11.1"/>
<rect x="346.3" y="438.2" width="11.1" height="11.1"/>
<rect x="296.9" y="339.7" width="11.1" height="11.1"/>
<rect x="298.5" y="284" width="11.1" height="11.1"/>
<rect x="434.2" y="400.9" width="11.1" height="11.1"/>
<rect x="71.7" y="339.7" width="11.1" height="11.1"/>
<rect x="113.1" y="323" width="11.1" height="11.1"/>
<rect x="192.9" y="304.7" width="11.1" height="11.1"/>
<rect x="209.6" y="361.9" width="11.1" height="11.1"/>
<rect x="239.2" y="395.3" width="11.1" height="11.1"/>
<rect x="159.2" y="432.7" width="11.1" height="11.1"/>
<rect x="239.2" y="449.3" width="11.1" height="11.1"/>
<rect x="129.8" y="367.5" width="11.1" height="11.1"/>
<rect x="385.3" y="350.8" width="11.1" height="11.1"/>
<rect x="379.7" y="384.2" width="11.1" height="11.1"/>
<rect x="269.6" y="124" width="11.1" height="11.1"/>
<rect x="209.6" y="76" width="11.1" height="11.1"/>
<rect x="304.1" y="38.1" width="11.1" height="11.1"/>
<rect x="340.8" y="38.1" width="11.1" height="11.1"/>
<rect x="379.7" y="38.1" width="11.1" height="11.1"/>
<rect x="431.8" y="38.1" width="11.1" height="11.1"/>
<rect x="470.7" y="38.1" width="11.1" height="11.1"/>
<rect x="198.5" y="98.7" width="11.1" height="11.1"/>
</svg>
