<?xml version='1.0' encoding='iso-8859-1'?>
<svg version="1.1" xmlns="http://www.w3.org/2000/svg" viewBox="0 0 60 60" xmlns:xlink="http://www.w3.org/1999/xlink" enable-background="new 0 0 60 60">
  <g>
    <g>
      <path d="m46,34c-0.552,0-1,0.448-1,1v14c0,0.552 0.448,1 1,1 0.552,0 1-0.448 1-1v-14c0-0.552-0.448-1-1-1zm-32,8c-0.552,0-1,0.448-1,1v6c0,0.552 0.448,1 1,1 0.552,0 1-0.448 1-1v-6c0-0.552-0.448-1-1-1zm16-20c-0.552,0-1,0.448-1,1v26c0,0.552 0.448,1 1,1 0.552,0 1-0.448 1-1v-26c0-0.552-0.448-1-1-1z"/>
    </g>
  </g>
  <g>
    <g>
      <path d="m42,26c0,2.209 1.791,4 4,4 2.209,0 4-1.791 4-4 0-2.209-1.791-4-4-4-2.209,0-4,1.791-4,4zm4-2c1.105,0 2,0.895 2,2 0,1.105-0.895,2-2,2-1.105,0-2-0.895-2-2 0-1.105 0.895-2 2-2zm1-7v-6c0-0.552-0.448-1-1-1-0.552,0-1,0.448-1,1v6c0,0.552 0.448,1 1,1 0.552,0 1-0.448 1-1zm9-17h-52c-2.209,0-4,1.791-4,4v52c0,2.209 1.791,4 4,4h49c0.552,0 1-0.448 1-1s-0.448-1-1-1h-49c-1.105,0-2-0.895-2-2v-52c0-1.105 0.895-2 2-2h52c1.105,0 2,0.895 2,2v55c0,0.552 0.448,1 1,1s1-0.448 1-1v-55c0-2.209-1.791-4-4-4zm-41,25v-14c0-0.552-0.448-1-1-1-0.552,0-1,0.448-1,1v14c0,0.552 0.448,1 1,1 0.552,0 1-0.448 1-1zm-5,9c0,2.209 1.791,4 4,4 2.209,0 4-1.791 4-4 0-2.209-1.791-4-4-4-2.209,0-4,1.791-4,4zm4-2c1.105,0 2,0.895 2,2 0,1.105-0.895,2-2,2-1.105,0-2-0.895-2-2 0-1.105 0.895-2 2-2zm12-18c0,2.209 1.791,4 4,4 2.209,0 4-1.791 4-4 0-2.209-1.791-4-4-4-2.209,0-4,1.791-4,4zm6,0c0,1.105-0.895,2-2,2-1.104,0-2-0.895-2-2s0.896-2 2-2c1.105,0 2,0.896 2,2z"/>
    </g>
  </g>
</svg>
