<?xml version="1.0" encoding="utf-8"?>
<!-- Generator: Adobe Illustrator 23.0.0, SVG Export Plug-In . SVG Version: 6.00 Build 0)  -->
<svg version="1.1" id="Camada_1" xmlns="http://www.w3.org/2000/svg" xmlns:xlink="http://www.w3.org/1999/xlink" x="0px" y="0px"
	 viewBox="0 0 300 300" style="enable-background:new 0 0 300 300;" xml:space="preserve">
<style type="text/css">
	.st0{fill:#141B64;}
</style>
<g>
	<path d="M25.8,141v-21.6h81.4c4.3,0,7.4-0.6,9.3-1.9c1.9-1.3,2.8-3.9,2.8-7.8v-6.2c0-3.6-0.9-6.1-2.8-7.6c-1.9-1.5-4.9-2.3-9.1-2.3
		H56.3c-6,0-10.9-0.6-14.8-1.8c-3.9-1.2-7-3-9.3-5.4c-2.3-2.4-3.9-5.4-4.8-9c-0.9-3.6-1.3-7.9-1.3-12.8V59c0-5.8,0.6-10.8,1.7-14.9
		c1.2-4.1,2.9-7.4,5.3-10c2.4-2.5,5.5-4.4,9.4-5.5c3.9-1.2,8.5-1.8,13.8-1.8h33.3v21.6H58.5c-3.7,0-6.4,0.8-8.1,2.3
		c-1.7,1.5-2.6,4.5-2.6,9.1v3.7c0,3.6,0.8,6.1,2.4,7.6c1.6,1.5,4.3,2.3,8.2,2.3h50.1c6,0,11,0.5,15.2,1.6c4.1,1.1,7.5,2.8,10.1,5.1
		c2.6,2.3,4.5,5.4,5.7,9c1.2,3.7,1.7,8.1,1.7,13.2v9c0,5.4-0.6,9.9-1.7,13.6c-1.2,3.7-3,6.8-5.7,9.1c-2.6,2.3-6,4.1-10.1,5.2
		c-4.1,1.1-9.2,1.7-15.2,1.7H25.8z"/>
	<path d="M278,73.4L278,73.4l-45.2-0.1V93h22.9v6.8c0,4-0.3,7.3-0.9,9.9c-0.6,2.6-1.6,4.5-3.1,5.9c-1.4,1.4-3.3,2.3-5.6,2.8
		c-2.3,0.5-5.1,0.8-8.5,0.8h-40.4c-3.5,0-6.4-0.2-8.7-0.8c-2.4-0.5-4.2-1.4-5.7-2.8c-1.4-1.3-2.4-3.2-3-5.6
		c-0.6-2.4-0.9-5.5-0.9-9.3V67.2c0-3.5,0.3-6.4,0.9-8.7c0.6-2.3,1.5-4.2,2.9-5.7c1.4-1.4,3.2-2.5,5.6-3.1c2.4-0.6,5.3-0.9,8.9-0.9
		h26.9V26.9h-28c-7.9,0-14.4,0.7-19.6,2.1c-5.2,1.4-9.4,3.6-12.6,6.7c-3.1,3.1-5.4,7.1-6.7,12.1c-1.3,5-2,11.1-2,18.2v35.8
		c0,7.3,0.7,13.4,2,18.3c1.3,5,3.5,9,6.7,12.1c3.1,3.1,7.3,5.3,12.6,6.7c5.2,1.4,11.8,2.1,19.6,2.1h42.3c8,0,14.6-0.7,19.9-2.1
		c5.3-1.4,9.5-3.6,12.6-6.7c3.1-3.1,5.4-7.1,6.7-12.1c1.3-5,2-11.1,2-18.3V73.4H278z"/>
	<path d="M276.5,179.8c-1.3-5-3.5-9.1-6.7-12.1c-3.1-3.1-7.3-5.3-12.6-6.7c-5.2-1.4-11.8-2.1-19.8-2.1h-40.7
		c-7.9,0-14.4,0.7-19.6,2.1c-5.2,1.4-9.4,3.6-12.6,6.7c-3.1,3.1-5.4,7.1-6.7,12.1c-1.3,5-2,11.1-2,18.2v35.8c0,7.3,0.7,13.4,2,18.3
		c1.3,5,3.5,9,6.7,12.1c3.1,3.1,7.3,5.3,12.6,6.7c5.2,1.4,11.8,2.1,19.6,2.1h11.6v0.1h18.5V273h10.6c8,0,14.6-0.7,19.8-2.1
		c5.2-1.4,9.4-3.6,12.6-6.7c3.1-3.1,5.4-7.1,6.7-12.1c1.3-5,2-11.1,2-18.3V198C278.5,190.9,277.8,184.8,276.5,179.8z M253.7,242
		c-0.6,2.4-1.5,4.3-2.9,5.7c-1.4,1.4-3.2,2.3-5.6,2.8c-2.4,0.5-5.3,0.8-8.7,0.8h-9.7V237h-18.5v14.2h-10.5c-3.8,0-6.8-0.2-9.2-0.8
		c-2.4-0.5-4.2-1.4-5.6-2.8c-1.4-1.4-2.3-3.3-2.7-5.7c-0.5-2.4-0.7-5.4-0.7-9.1v-6.7h11.3v-19.7h-11.3v-7.2c0-3.6,0.2-6.5,0.7-8.9
		c0.5-2.3,1.4-4.2,2.7-5.7c1.4-1.4,3.2-2.5,5.6-3c2.4-0.6,5.4-0.8,9.2-0.8h10.5v11.4h18.5v-11.4h9.7c3.5,0,6.4,0.3,8.7,0.8
		c2.4,0.6,4.2,1.6,5.6,3c1.4,1.5,2.3,3.3,2.9,5.7c0.6,2.3,0.9,5.3,0.9,8.9v6.1h-11.3V225h11.3v7.8
		C254.6,236.5,254.3,239.6,253.7,242z"/>
	<g>
		<path class="st0" d="M44.2,206.4v-7.2c0-3.6,0.2-6.5,0.7-8.9c0.5-2.3,1.4-4.2,2.7-5.7c1.4-1.4,3.2-2.5,5.6-3
			c2.4-0.6,5.4-0.8,9.2-0.8h10.4v-21.9H61.3c-7.9,0-14.4,0.7-19.6,2.1c-5.2,1.4-9.4,3.6-12.6,6.7c-3.1,3.1-5.4,7.1-6.7,12.1
			c-1.3,5-2,11.1-2,18.2v8.4H44.2z"/>
		<path class="st0" d="M91.3,180.8h9.8c3.5,0,6.4,0.3,8.7,0.8c2.4,0.6,4.2,1.6,5.6,3c1.4,1.5,2.3,3.3,2.9,5.7
			c0.6,2.3,0.9,5.3,0.9,8.9v6.1H143V198c0-7.1-0.7-13.2-2-18.2c-1.3-5-3.5-9.1-6.7-12.1c-3.1-3.1-7.3-5.3-12.6-6.7
			c-5.2-1.4-11.8-2.1-19.8-2.1H91.3V180.8z"/>
		<path class="st0" d="M72.8,251.3H62.4c-3.8,0-6.8-0.2-9.2-0.8c-2.4-0.5-4.2-1.4-5.6-2.8c-1.4-1.4-2.3-3.3-2.7-5.7
			c-0.5-2.4-0.7-5.4-0.7-9.1v-6.7H20.4v7.8c0,7.3,0.7,13.4,2,18.3c1.3,5,3.5,9,6.7,12.1c3.1,3.1,7.3,5.3,12.6,6.7
			c5.2,1.4,11.8,2.1,19.6,2.1h11.5V251.3z"/>
		<path class="st0" d="M119.1,225v7.8c0,3.7-0.3,6.7-0.9,9.1c-0.6,2.4-1.5,4.3-2.9,5.7c-1.4,1.4-3.2,2.3-5.6,2.8
			c-2.4,0.5-5.3,0.8-8.7,0.8h-9.8V273H102c8,0,14.6-0.7,19.8-2.1c5.2-1.4,9.4-3.6,12.6-6.7c3.1-3.1,5.4-7.1,6.7-12.1
			c1.3-5,2-11.1,2-18.3V225H119.1z"/>
	</g>
</g>
</svg>
