<svg width="95" height="60" viewBox="0 0 95 60" fill="none" xmlns="http://www.w3.org/2000/svg">
<path d="M5.31586 0V21.3031H17.5272V25.6645H0.372681V0H5.31586Z" fill="white"/>
<path d="M41.6086 0L31.9531 15.8684V25.6645H27.0099V15.8684L17.6212 0H23.3458L27.2768 6.76948C27.4932 7.14543 27.861 7.84023 28.3827 8.85624L28.9357 9.8913L29.4695 10.9263H29.6041L30.1571 9.8913L30.7101 8.85624C31.1813 7.92827 31.5564 7.23347 31.8353 6.76948L35.8047 0H41.6086Z" fill="white"/>
<path d="M67.9619 0V25.6645H59.5854L52.1441 11.5807C51.7739 10.8788 51.1969 9.65097 50.4083 7.89495L49.5692 6.05327L48.7493 4.21159H48.5594L48.6363 5.90337L48.694 7.57611L48.7325 10.9406V25.6622H43.7893V0H52.1658L58.941 13.0107C59.5397 14.1648 60.2321 15.5615 61.0207 17.2033L62.0137 19.2901L63.0067 21.3958H63.1774L63.1197 19.7421L63.0619 18.0884L63.0235 14.7786V0H67.9619Z" fill="white"/>
<path d="M94.4859 0L86.6624 12.4278L95.0004 25.6645H89.1989L85.4579 19.4971C84.8857 18.5453 84.3375 17.5792 83.8158 16.6013L83.282 15.5853L82.729 14.5883H82.6521L82.0991 15.6043C81.4379 16.8321 80.6878 18.1313 79.8463 19.4971L76.086 25.6645H70.1331L78.6826 12.4278L70.7437 0H76.639L80.1132 5.71539C80.659 6.6172 81.1759 7.50711 81.6591 8.38512L82.1352 9.28692L82.6112 10.1887H82.6882C82.9046 9.7866 83.0632 9.48679 83.1642 9.28692L83.6403 8.40415C84.0466 7.62608 84.5563 6.73617 85.167 5.73443L88.6411 0H94.4859V0Z" fill="white"/>
<path d="M0 47.0799V33.6885H5.50819H6.00828C7.48931 33.6885 8.4991 33.9788 9.03766 34.5617C9.57622 35.1447 9.8455 36.2321 9.8455 37.8287C9.8455 39.3587 9.5642 40.4009 9.004 40.9576C8.4438 41.5144 7.39073 41.7904 5.84479 41.7904L5.26776 41.8023H1.48103V47.0799H0ZM1.48103 40.527H4.99127C6.46028 40.527 7.40035 40.3723 7.81388 40.0654C8.22742 39.7584 8.43419 39.0517 8.43419 37.9453C8.43419 36.6509 8.29474 35.8323 8.01584 35.4897C7.73695 35.1447 7.07337 34.9757 6.02991 34.9757L5.46251 34.9639H1.48103V40.527Z" fill="white"/>
<path d="M16.4092 37.7023H17.7556L17.6209 38.7802L17.6498 38.8087C18.1811 37.926 19.0611 37.4834 20.2849 37.4834C21.9775 37.4834 22.8238 38.3733 22.8238 40.1531L22.8142 40.8003H21.487L21.5159 40.5648C21.5351 40.3173 21.5447 40.1507 21.5447 40.0651C21.5447 39.1038 21.0326 38.6231 20.006 38.6231C18.5057 38.6231 17.7556 39.5678 17.7556 41.457V47.0796H16.4092V37.7023V37.7023Z" fill="white"/>
<path d="M32.6453 37.5645C34.3427 37.5645 35.4463 37.8643 35.9536 38.4663C36.4609 39.0683 36.7134 40.3769 36.7134 42.3899C36.7134 44.4053 36.4609 45.714 35.9536 46.316C35.4463 46.918 34.3451 47.2178 32.6453 47.2178C30.9527 47.2178 29.854 46.918 29.3467 46.316C28.8394 45.714 28.5869 44.4053 28.5869 42.3899C28.5869 40.3769 28.8394 39.0683 29.3467 38.4663C29.854 37.8666 30.9527 37.5645 32.6453 37.5645ZM32.6453 38.7018C31.4528 38.7018 30.7147 38.8993 30.4286 39.2943C30.1425 39.6917 30.0006 40.722 30.0006 42.3899C30.0006 44.0579 30.1425 45.0906 30.4286 45.4856C30.7147 45.8829 31.4528 46.0804 32.6453 46.0804C33.8451 46.0804 34.5856 45.8829 34.8717 45.4856C35.1578 45.0906 35.2996 44.0603 35.2996 42.3899C35.2996 40.722 35.1578 39.6917 34.8717 39.2943C34.5856 38.9017 33.8427 38.7018 32.6453 38.7018Z" fill="white"/>
<path d="M49.8499 43.6962H51.1963L51.2035 44.2054C51.2035 46.2137 49.9148 47.2178 47.3399 47.2178C45.6857 47.2178 44.5918 46.9013 44.0604 46.266C43.5291 45.6331 43.2622 44.3244 43.2622 42.3424C43.2622 40.484 43.5315 39.2253 44.0749 38.5591C44.6158 37.8952 45.6472 37.5645 47.1667 37.5645C48.6598 37.5645 49.6792 37.7881 50.225 38.2355C50.7707 38.6828 51.0424 39.5275 51.0424 40.7624H49.696V40.5173C49.696 39.7916 49.5181 39.3086 49.1671 39.0659C48.8137 38.8232 48.1116 38.7018 47.061 38.7018C46.0464 38.7018 45.3972 38.9326 45.1087 39.3895C44.8202 39.8463 44.6759 40.8742 44.6759 42.4708C44.6759 44.027 44.8418 45.0168 45.1712 45.4428C45.5006 45.8663 46.2724 46.0804 47.4841 46.0804C48.5107 46.0804 49.1599 45.9424 49.4364 45.664C49.7129 45.3856 49.8499 44.7289 49.8499 43.6962Z" fill="white"/>
<path d="M64.2009 44.243H65.5785L65.5857 44.588C65.5857 45.5612 65.2972 46.2441 64.7178 46.6319C64.1383 47.0198 63.1189 47.2149 61.6643 47.2149C59.9717 47.2149 58.861 46.9008 58.332 46.2679C57.8031 45.6373 57.541 44.3096 57.541 42.2895C57.541 40.4216 57.8079 39.1653 58.3392 38.5228C58.873 37.8827 59.914 37.5615 61.4624 37.5615C63.155 37.5615 64.2658 37.8399 64.7899 38.3943C65.314 38.9511 65.5809 40.1218 65.5809 41.9064V42.6416H58.9619C58.9619 44.1192 59.1182 45.0615 59.4308 45.466C59.7409 45.8705 60.467 46.0751 61.609 46.0751C62.691 46.0751 63.3954 45.98 63.72 45.7872C64.0422 45.5921 64.2033 45.1757 64.2033 44.5356V44.243H64.2009ZM64.2009 41.578L64.1936 41.1354C64.1936 40.1218 64.0277 39.4627 63.7032 39.1581C63.3738 38.8536 62.6693 38.7037 61.5874 38.7037C60.4983 38.7037 59.7914 38.8821 59.4644 39.239C59.1423 39.5936 58.9812 40.374 58.9812 41.578H64.2009Z" fill="white"/>
<path d="M79.5523 40.1558H78.206C78.206 39.5014 78.0761 39.0969 77.8165 38.9399C77.5592 38.7828 76.8908 38.7043 75.8113 38.7043C74.8111 38.7043 74.1764 38.7876 73.9071 38.9542C73.6378 39.1207 73.5032 39.5205 73.5032 40.1558C73.5032 41.1171 73.9552 41.6215 74.8592 41.6643L75.9435 41.7238L77.3188 41.7928C78.9849 41.8785 79.8192 42.766 79.8192 44.4625C79.8192 45.5143 79.5427 46.24 78.9922 46.6302C78.4392 47.0228 77.4318 47.2203 75.9628 47.2203C74.4577 47.2203 73.4215 47.0347 72.854 46.6611C72.2842 46.29 72.0029 45.6047 72.0029 44.6101L72.0125 44.1009H73.407L73.4166 44.5411C73.4166 45.155 73.5705 45.5666 73.8783 45.7736C74.186 45.9782 74.7919 46.0829 75.6959 46.0829C76.8043 46.0829 77.5328 45.9759 77.8814 45.7593C78.2324 45.5428 78.4055 45.0931 78.4055 44.4054C78.4055 43.418 77.9679 42.9231 77.0904 42.9231C75.0443 42.9231 73.7003 42.747 73.056 42.3924C72.4117 42.0403 72.0895 41.3074 72.0895 40.1962C72.0895 39.1445 72.3443 38.4426 72.854 38.0928C73.3637 37.743 74.3784 37.5693 75.8954 37.5693C78.3334 37.5693 79.5499 38.3165 79.5499 39.8131V40.1558H79.5523Z" fill="white"/>
<path d="M93.6056 40.1558H92.2592C92.2592 39.5014 92.1293 39.0969 91.8697 38.9399C91.6124 38.7828 90.944 38.7043 89.8645 38.7043C88.8643 38.7043 88.2296 38.7876 87.9603 38.9542C87.6911 39.1207 87.5564 39.5205 87.5564 40.1558C87.5564 41.1171 88.0084 41.6215 88.9124 41.6643L89.9968 41.7238L91.372 41.7928C93.0382 41.8785 93.8724 42.766 93.8724 44.4625C93.8724 45.5143 93.596 46.24 93.0454 46.6302C92.4924 47.0228 91.485 47.2203 90.016 47.2203C88.5109 47.2203 87.4747 47.0347 86.9073 46.6611C86.3375 46.29 86.0562 45.6047 86.0562 44.6101L86.0658 44.1009H87.4602L87.4699 44.5411C87.4699 45.155 87.6237 45.5666 87.9315 45.7736C88.2392 45.9782 88.8451 46.0829 89.7491 46.0829C90.8575 46.0829 91.586 45.9759 91.9346 45.7593C92.2856 45.5428 92.4587 45.0931 92.4587 44.4054C92.4587 43.418 92.0212 42.9231 91.1436 42.9231C89.0976 42.9231 87.7536 42.747 87.1092 42.3924C86.4649 42.0403 86.1427 41.3074 86.1427 40.1962C86.1427 39.1445 86.3976 38.4426 86.9073 38.0928C87.417 37.743 88.4316 37.5693 89.9487 37.5693C92.3866 37.5693 93.6032 38.3165 93.6032 39.8131V40.1558H93.6056Z" fill="white"/>
<path d="M94.6512 53.1465H0.019043V53.9864H94.6512V53.1465Z" fill="white"/>
<path d="M94.6512 53.3018H0.019043V54.1417H94.6512V53.3018Z" fill="white"/>
<path d="M94.6512 59.0078H0.019043V59.8478H94.6512V59.0078Z" fill="white"/>
<path d="M94.6512 59.1602H0.019043V60.0001H94.6512V59.1602Z" fill="white"/>
</svg>
