<svg id="Camada_1" data-name="Camada 1" xmlns="http://www.w3.org/2000/svg" viewBox="0 0 298.03 300"><defs><style>.cls-1{fill:#141b64;}.cls-2{fill:#fff;}.cls-3{fill:#6c93f4;}</style></defs><title>LOGO_Vertical_SGOO_fundo azul</title><rect class="cls-1" width="298.03" height="300"/><path class="cls-2" d="M25.85,141V119.43h81.38q6.43,0,9.27-1.93t2.82-7.78v-6.19q0-5.36-2.82-7.62c-1.89-1.5-4.93-2.26-9.12-2.26H56.32A53,53,0,0,1,41.48,91.9a21,21,0,0,1-9.35-5.36,19.47,19.47,0,0,1-4.79-9A54.09,54.09,0,0,1,26,64.7V59a56,56,0,0,1,1.73-14.89,23,23,0,0,1,5.34-10,21.39,21.39,0,0,1,9.43-5.53,48.09,48.09,0,0,1,13.82-1.75H89.63V48.47H58.52q-5.49,0-8.09,2.26c-1.72,1.5-2.59,4.54-2.59,9.12v3.68q0,5.35,2.36,7.61t8.17,2.26h50.11A62,62,0,0,1,123.64,75a23.69,23.69,0,0,1,10.14,5.11,19.74,19.74,0,0,1,5.65,9,44.62,44.62,0,0,1,1.73,13.22v9A46.77,46.77,0,0,1,139.43,125a19.75,19.75,0,0,1-5.65,9.12,24.35,24.35,0,0,1-10.14,5.19A58.82,58.82,0,0,1,108.48,141Z" transform="translate(-1.99 -1)"/><path class="cls-2" d="M278,73.4v-.07H232.81V93h22.88v6.84a42.52,42.52,0,0,1-.95,9.87,12.14,12.14,0,0,1-3.06,5.94,11.09,11.09,0,0,1-5.58,2.85,40.7,40.7,0,0,1-8.48.75H197.24a42.76,42.76,0,0,1-8.71-.75,11.56,11.56,0,0,1-5.66-2.77,11.05,11.05,0,0,1-3-5.6,41.36,41.36,0,0,1-.86-9.29V67.21a37.43,37.43,0,0,1,.86-8.7,12.56,12.56,0,0,1,2.91-5.69,11.41,11.41,0,0,1,5.58-3.1,36,36,0,0,1,8.87-.92h26.87V26.88h-28A77.91,77.91,0,0,0,176.51,29a27.94,27.94,0,0,0-12.57,6.69,25.59,25.59,0,0,0-6.68,12.14,73.18,73.18,0,0,0-2,18.24v35.81a73,73,0,0,0,2,18.33,25.52,25.52,0,0,0,6.68,12,27.75,27.75,0,0,0,12.57,6.69,77.4,77.4,0,0,0,19.63,2.1h42.27a79.22,79.22,0,0,0,19.87-2.1,27.84,27.84,0,0,0,12.65-6.69,25.51,25.51,0,0,0,6.67-12,72.91,72.91,0,0,0,2-18.33V73.4Z" transform="translate(-1.99 -1)"/><path class="cls-2" d="M276.51,179.8a25.58,25.58,0,0,0-6.67-12.14A27.94,27.94,0,0,0,257.27,161a78.78,78.78,0,0,0-19.79-2.09H196.79A77.94,77.94,0,0,0,177.15,161a27.94,27.94,0,0,0-12.57,6.69,25.59,25.59,0,0,0-6.68,12.14,73.18,73.18,0,0,0-2,18.24v35.81a73,73,0,0,0,2,18.33,25.52,25.52,0,0,0,6.68,12.05,27.75,27.75,0,0,0,12.57,6.69,77.43,77.43,0,0,0,19.64,2.1h11.58v.1h18.48V273h10.63a78.26,78.26,0,0,0,19.79-2.1,27.75,27.75,0,0,0,12.57-6.69,25.51,25.51,0,0,0,6.67-12.05,72.91,72.91,0,0,0,2-18.33V198A73.14,73.14,0,0,0,276.51,179.8ZM253.74,242a12,12,0,0,1-2.91,5.69,10.69,10.69,0,0,1-5.58,2.85,42.79,42.79,0,0,1-8.72.75h-9.68V237H208.37v14.22H197.88a45.78,45.78,0,0,1-9.19-.75,10.7,10.7,0,0,1-5.57-2.85,10.92,10.92,0,0,1-2.75-5.69,48.71,48.71,0,0,1-.71-9.12V226.1h11.26V206.42H179.66v-7.21a46.22,46.22,0,0,1,.71-8.87,11.4,11.4,0,0,1,2.75-5.69,10.86,10.86,0,0,1,5.57-3,41,41,0,0,1,9.19-.84h10.49v11.41h18.48V180.8h9.68a38.35,38.35,0,0,1,8.72.84,10.86,10.86,0,0,1,5.58,3,12.56,12.56,0,0,1,2.91,5.69,38.34,38.34,0,0,1,.86,8.87v6.12H243.27V225H254.6v7.84A40.4,40.4,0,0,1,253.74,242Z" transform="translate(-1.99 -1)"/><path class="cls-3" d="M44.16,206.42v-7.21a46.32,46.32,0,0,1,.7-8.87,11.4,11.4,0,0,1,2.75-5.69,10.86,10.86,0,0,1,5.58-3,41,41,0,0,1,9.19-.84h10.4V158.88H61.28A78,78,0,0,0,41.64,161a28,28,0,0,0-12.57,6.69A25.58,25.58,0,0,0,22.4,179.8a73.14,73.14,0,0,0-2,18.24v8.38Z" transform="translate(-1.99 -1)"/><path class="cls-3" d="M91.25,180.8H101a38.47,38.47,0,0,1,8.72.84,10.86,10.86,0,0,1,5.57,3,12.56,12.56,0,0,1,2.91,5.69,38.34,38.34,0,0,1,.86,8.87v6.12H143V198a73.18,73.18,0,0,0-2-18.24,25.59,25.59,0,0,0-6.68-12.14A27.94,27.94,0,0,0,121.76,161,78.67,78.67,0,0,0,102,158.88H91.25Z" transform="translate(-1.99 -1)"/><path class="cls-3" d="M72.78,251.26H62.38a45.78,45.78,0,0,1-9.19-.75,10.69,10.69,0,0,1-5.58-2.85A10.92,10.92,0,0,1,44.86,242a48.82,48.82,0,0,1-.7-9.12V226.1H20.43v7.75a72.91,72.91,0,0,0,2,18.33,25.51,25.51,0,0,0,6.67,12.05,27.8,27.8,0,0,0,12.57,6.69A77.48,77.48,0,0,0,61.28,273h11.5Z" transform="translate(-1.99 -1)"/><path class="cls-3" d="M119.09,225v7.84a40.4,40.4,0,0,1-.86,9.12,12,12,0,0,1-2.91,5.69,10.7,10.7,0,0,1-5.57,2.85,42.93,42.93,0,0,1-8.72.75H91.25V273H102a78.16,78.16,0,0,0,19.79-2.1,27.75,27.75,0,0,0,12.57-6.69A25.52,25.52,0,0,0,141,252.18a73,73,0,0,0,2-18.33V225Z" transform="translate(-1.99 -1)"/></svg>