<svg id="Camada_1" data-name="Camada 1" xmlns="http://www.w3.org/2000/svg" viewBox="0 0 473.31 274"><defs><style>.cls-1{fill:#141b64;}.cls-2{fill:#fff;}</style></defs><title>LOGO_LYNX_SGOO</title><path d="M15.69,286.91V267.68H88.14c3.82,0,6.58-.57,8.25-1.71s2.52-3.45,2.52-6.93v-5.51q0-4.77-2.52-6.78c-1.67-1.34-4.38-2-8.11-2H42.82a47.14,47.14,0,0,1-13.21-1.56,18.78,18.78,0,0,1-8.33-4.77,17.32,17.32,0,0,1-4.26-8A48.38,48.38,0,0,1,15.83,219V213.9a49.59,49.59,0,0,1,1.54-13.26,20.49,20.49,0,0,1,4.75-8.87,19.08,19.08,0,0,1,8.4-4.92,42.84,42.84,0,0,1,12.3-1.56H72.48v19.22H44.78q-4.89,0-7.2,2t-2.31,8.12v3.28q0,4.77,2.1,6.78t7.27,2H89.26a54.9,54.9,0,0,1,13.5,1.42,21.05,21.05,0,0,1,9,4.54,17.56,17.56,0,0,1,5,8.05,39.49,39.49,0,0,1,1.54,11.77v8a41.53,41.53,0,0,1-1.54,12.15,17.53,17.53,0,0,1-5,8.12,22,22,0,0,1-9,4.62,52.73,52.73,0,0,1-13.5,1.49Z" transform="translate(-15.69 -13)"/><path d="M167.31,286.91A68.82,68.82,0,0,1,149.82,285a24.71,24.71,0,0,1-11.19-6,22.69,22.69,0,0,1-5.94-10.72A64.81,64.81,0,0,1,130.94,252V220.15a65,65,0,0,1,1.75-16.24,22.72,22.72,0,0,1,5.94-10.8,24.81,24.81,0,0,1,11.19-6,69.32,69.32,0,0,1,17.49-1.86H192.2v19.52H168.28a31.82,31.82,0,0,0-7.9.82,10,10,0,0,0-5,2.75,11.05,11.05,0,0,0-2.59,5.07,33.24,33.24,0,0,0-.77,7.75v30a36.68,36.68,0,0,0,.77,8.27,9.82,9.82,0,0,0,2.66,5,10.27,10.27,0,0,0,5,2.46,38.54,38.54,0,0,0,7.76.67h35.95a36.61,36.61,0,0,0,7.55-.67,9.87,9.87,0,0,0,5-2.54,10.85,10.85,0,0,0,2.73-5.29,37.86,37.86,0,0,0,.84-8.79V226.71h21.26V252a65.27,65.27,0,0,1-1.75,16.32,22.7,22.7,0,0,1-6,10.72,24.66,24.66,0,0,1-11.26,6,70.29,70.29,0,0,1-17.69,1.87Z" transform="translate(-15.69 -13)"/><path class="cls-1" d="M292.07,286.91A68.87,68.87,0,0,1,274.58,285a24.71,24.71,0,0,1-11.19-6,22.69,22.69,0,0,1-5.94-10.72A64.81,64.81,0,0,1,255.7,252V220.15a65,65,0,0,1,1.75-16.24,22.72,22.72,0,0,1,5.94-10.8,24.81,24.81,0,0,1,11.19-6,69.38,69.38,0,0,1,17.49-1.86h36.22a70.08,70.08,0,0,1,17.63,1.86,24.81,24.81,0,0,1,11.19,6,22.81,22.81,0,0,1,5.94,10.8,65,65,0,0,1,1.75,16.24V252a64.81,64.81,0,0,1-1.75,16.32,22.77,22.77,0,0,1-5.94,10.72,24.71,24.71,0,0,1-11.19,6,69.57,69.57,0,0,1-17.63,1.87Zm51.47-65.71a34,34,0,0,0-.77-7.9,11.2,11.2,0,0,0-2.59-5.07,9.7,9.7,0,0,0-5-2.68,34.8,34.8,0,0,0-7.77-.74h-34.4a37.14,37.14,0,0,0-8.19.74,9.7,9.7,0,0,0-5,2.68,10.23,10.23,0,0,0-2.45,5.07,41.12,41.12,0,0,0-.63,7.9v30a43.34,43.34,0,0,0,.63,8.12,9.76,9.76,0,0,0,2.45,5.06,9.48,9.48,0,0,0,5,2.54,41.17,41.17,0,0,0,8.19.67h34.4a38.58,38.58,0,0,0,7.77-.67,9.48,9.48,0,0,0,5-2.54,10.62,10.62,0,0,0,2.59-5.06,35.86,35.86,0,0,0,.77-8.12Z" transform="translate(-15.69 -13)"/><path d="M416.27,286.91A68.87,68.87,0,0,1,398.78,285a24.62,24.62,0,0,1-11.18-6,22.7,22.7,0,0,1-6-10.72A64.81,64.81,0,0,1,379.9,252V220.15a65,65,0,0,1,1.75-16.24,22.73,22.73,0,0,1,6-10.8,24.72,24.72,0,0,1,11.18-6,69.38,69.38,0,0,1,17.49-1.86h36.22a70.08,70.08,0,0,1,17.63,1.86,24.81,24.81,0,0,1,11.19,6,22.81,22.81,0,0,1,5.94,10.8A65,65,0,0,1,489,220.15V252a64.81,64.81,0,0,1-1.75,16.32,22.77,22.77,0,0,1-5.94,10.72,24.71,24.71,0,0,1-11.19,6,69.57,69.57,0,0,1-17.63,1.87Zm51.47-65.71a34,34,0,0,0-.77-7.9,11.2,11.2,0,0,0-2.59-5.07,9.66,9.66,0,0,0-5-2.68,34.8,34.8,0,0,0-7.77-.74h-34.4a37,37,0,0,0-8.18.74,9.69,9.69,0,0,0-5,2.68,10.23,10.23,0,0,0-2.45,5.07,41.12,41.12,0,0,0-.63,7.9v30a43.34,43.34,0,0,0,.63,8.12,9.76,9.76,0,0,0,2.45,5.06,9.47,9.47,0,0,0,5,2.54,41,41,0,0,0,8.18.67h34.4a38.58,38.58,0,0,0,7.77-.67,9.44,9.44,0,0,0,5-2.54,10.62,10.62,0,0,0,2.59-5.06,35.86,35.86,0,0,0,.77-8.12Z" transform="translate(-15.69 -13)"/><rect x="184.26" y="213.64" width="40.21" height="17.52"/><rect x="365.2" y="214.62" width="30.16" height="17.52"/><rect x="441.97" y="213.64" width="30.16" height="17.52"/><rect x="420.21" y="192.13" width="29.21" height="16.45" transform="translate(619.48 -247.45) rotate(90)"/><rect x="418.75" y="262.71" width="32.13" height="16.45" transform="translate(690.06 -176.87) rotate(90)"/><rect class="cls-2" x="238.18" y="214.62" width="32.9" height="17.52"/><rect class="cls-2" x="317.68" y="213.64" width="32.9" height="17.52"/><rect class="cls-2" x="294.46" y="190.67" width="32.13" height="16.45" transform="translate(493.73 -124.63) rotate(90)"/><rect class="cls-2" x="294.46" y="262.71" width="32.13" height="16.45" transform="translate(565.77 -52.59) rotate(90)"/><path class="cls-1" d="M44.08,13V119h59.86v21.7H19.85V13Z" transform="translate(-15.69 -13)"/><path class="cls-1" d="M222,13,174.64,91.94v48.72H150.42V91.94L104.4,13h28.06l19.27,33.67q1.59,2.8,5.42,10.38l2.71,5.14,2.62,5.15h.65l2.72-5.15,2.71-5.14q3.47-6.91,5.52-10.38L193.53,13Z" transform="translate(-15.69 -13)"/><path class="cls-1" d="M351.13,13V140.66H310.07l-36.48-70q-2.71-5.23-8.51-18.33L261,43.12,257,34H256l.37,8.42.28,8.32.19,16.74v73.23H232.62V13h41.06l33.21,64.72q4.39,8.61,10.19,20.85L321.94,109l4.87,10.47h.84l-.28-8.23-.28-8.23-.19-16.46V13Z" transform="translate(-15.69 -13)"/><path class="cls-1" d="M481.13,13,442.79,74.82l40.87,65.84H455.22L436.89,110q-4.2-7.1-8-14.4l-2.62-5-2.71-5h-.37l-2.72,5q-4.86,9.16-11,19.35L391,140.66H361.79l41.9-65.84L364.78,13h28.91l17,28.43q4,6.74,7.57,13.28l2.34,4.49L423,63.69h.37q1.59-3,2.34-4.49L428,54.81q3-5.81,7.48-13.28l17-28.53Z" transform="translate(-15.69 -13)"/></svg>